<svg xmlns="http://www.w3.org/2000/svg" data-name="Layer 1" viewBox="0 0 128 160" x="0px" y="0px"><path d="M14,114v12a2,2,0,0,0,4,0V114h92v12a2,2,0,0,0,4,0V114h12a2,2,0,0,0,0-4H114V27.0321l-4,4.05353V110H18V18H95.28613l4.38031-4H18V2a2,2,0,0,0-4,0V14H2a2,2,0,0,0,0,4H14v92H2a2,2,0,0,0,0,4Z"/><path d="M122.9129,18H126a1.99718,1.99718,0,0,0,.72223-3.86029Z"/><path d="M112,0a2.0001,2.0001,0,0,0-2,2V4.56354l3.78217-3.45374A1.99326,1.99326,0,0,0,112,0Z"/><path d="M37,57A15,15,0,1,0,22,42,15.017,15.017,0,0,0,37,57Zm0-26A11,11,0,1,1,26,42,11.01245,11.01245,0,0,1,37,31Z"/><path d="M50.22266,58.70264c-4.79,6.24268-6.457,14.80518-4.24609,21.814a1.99179,1.99179,0,0,0,.501.82031l.08594.085A2.00067,2.00067,0,0,0,47.96973,82a1.98043,1.98043,0,0,0,.30273-.02344,2.00073,2.00073,0,0,0,1.46436-1.04c2.30566-4.34961,6.07861-5.06836,10.44727-5.90039,5.60358-1.067,12.49841-2.38678,13.85223-13.54333a1.99149,1.99149,0,0,0,.826-.49377L126.61523,8.55273a5.02749,5.02749,0,0,0-.1123-7.06836l-.00586-.00586-.00781-.0083a5.06855,5.06855,0,0,0-7.05957-.10107L65.23535,50.85858C59.55505,50.79156,54.11591,53.62939,50.22266,58.70264Zm9.21289,12.40479c-3.49268.665-7.33154,1.39648-10.38867,4.208A21.3447,21.3447,0,0,1,53.396,61.13818c3.26123-4.24951,7.60107-6.46729,12.21631-6.27686.06232.00317.12152-.00677.18256-.00928l4.42841,4.37671C69.67145,69.15527,65.37787,69.97571,59.43555,71.10742ZM122.15332,4.29883a1.10262,1.10262,0,0,1,1.52344.01611l.00586.00586a1.04672,1.04672,0,0,1,.05566,1.45313L82.18866,47.87952,78.4624,44.19678ZM75.50458,46.89789l3.87427,3.829L73.4209,56.76465l-4.18848-4.13916Z"/><path d="M73.64844,86l-5.32831-9.13458a23.225,23.225,0,0,1-3.85022,1.33807l6.30255,10.80432A2.00074,2.00074,0,0,0,72.5,90h21a2.00074,2.00074,0,0,0,1.72754-.99219l10.5-18a2.00014,2.00014,0,0,0,0-2.01562l-10.5-18A2.00074,2.00074,0,0,0,93.5,50H91.33533l-3.9472,4h4.96344l9.333,16-9.333,16Z"/><path d="M22.272,98.00684A1.99978,1.99978,0,0,0,24,99H58a2.00037,2.00037,0,0,0,1.74023-2.98633L52.72778,83.63873A5.98678,5.98678,0,0,1,49.369,85.8255L54.56787,95H27.43213L41,71.05664l.13031.22992a28.988,28.988,0,0,1,1.15912-5.796,1.9767,1.9767,0,0,0-3.02966.52313l-17,30A2.00075,2.00075,0,0,0,22.272,98.00684Z"/></svg>